Coordinates
version=1
nRows=20
nColumns=38
inDegrees=no

Units are S.I. units (second, meters, Newtons, ...)
If the header above contains a line with 'inDegrees', this indicates whether rotational values are in degrees (yes) or radians (no).

endheader
time	pelvis_tilt	pelvis_list	pelvis_rotation	pelvis_tx	pelvis_ty	pelvis_tz	hip_flexion_r	hip_adduction_r	hip_rotation_r	knee_angle_r	ankle_angle_r	subtalar_angle_r	mtp_angle_r	hip_flexion_l	hip_adduction_l	hip_rotation_l	knee_angle_l	ankle_angle_l	subtalar_angle_l	mtp_angle_l	lumbar_extension	lumbar_bending	lumbar_rotation	arm_flex_r	arm_add_r	arm_rot_r	elbow_flex_r	pro_sup_r	wrist_flex_r	wrist_dev_r	arm_flex_l	arm_add_l	arm_rot_l	elbow_flex_l	pro_sup_l	wrist_flex_l	wrist_dev_l
185	-2.60361	1.31105	0.699578	0.75066	-0.536686	0.901861	0.387896	0.110276	0.0868002	0.427232	-0.238832	0	0	0.0709642	-0.207124	-0.46387	0	-0.216477	0	0	0.100137	0.170817	-0.134338	-0.0259583	-0.517011	0.667458	0.858548	0.508006	0	0	0.184195	-0.120255	0.581053	0.328424	1.5708	0	0
185.01	-2.57068	1.25574	0.648541	0.747713	-0.533879	0.89508	0.416782	0.171192	0.0970488	0.42907	-0.223241	0	0	0.188331	-0.28259	-0.674068	0.0892441	-0.198854	0	0	0.132815	0.228588	-0.135374	-0.0439465	-0.548094	0.671796	0.92254	0.147941	0	0	0.17565	-0.117532	0.582877	0.343962	1.5708	0	0
185.02	-2.58115	1.31584	0.653237	0.749393	-0.533038	0.90332	0.369498	0.112241	0.0818657	0.416893	-0.2248	0	0	0.0551038	-0.209682	-0.467242	0	-0.228841	0	0	0.0808439	0.171123	-0.142889	-0.0166031	-0.523441	0.697106	0.879599	0.140048	0	0	0.192245	-0.122033	0.589008	0.316254	1.5708	0	0
185.03	-2.48757	1.3054	0.540582	0.745497	-0.531333	0.904319	0.337759	0.146698	0.0989943	0.391225	-0.224405	0	0	0.0754678	-0.267524	-0.655643	0.0980166	-0.196179	0	0	0.06082	0.194226	-0.13612	-0.0187725	-0.528185	0.702213	0.881502	0.13385	0	0	0.1948	-0.125143	0.595428	0.317939	1.5708	0	0
185.04	-2.46673	1.31003	0.505989	0.744116	-0.53022	0.905677	0.321471	0.146895	0.0966231	0.385661	-0.220243	0	0	0.0537548	-0.261367	-0.659287	0.0717261	-0.207464	0	0	0.0484723	0.192625	-0.136622	-0.0185166	-0.527367	0.709394	0.866763	0.199167	0	0	0.198389	-0.125778	0.600077	0.3108	1.5708	0	0
185.05	-2.50569	1.30169	0.541149	0.744206	-0.528546	0.904286	0.33233	0.145524	0.0818486	0.388538	-0.21168	0	0	0.0826756	-0.275845	-0.693231	0.113101	-0.194016	0	0	0.0616686	0.195267	-0.150997	-0.0190625	-0.531422	0.720548	0.861846	0.183411	0	0	0.198844	-0.125128	0.603785	0.305038	1.5708	0	0
185.06	-2.48425	1.30964	0.504373	0.742741	-0.527368	0.90591	0.31393	0.142601	0.0778971	0.383742	-0.208628	0	0	0.0551065	-0.263119	-0.683851	0.075654	-0.20727	0	0	0.0471753	0.191043	-0.150007	-0.0168086	-0.531267	0.72894	0.858311	0.118804	0	0	0.202155	-0.126457	0.60624	0.299602	1.5708	0	0
185.07	-2.55586	1.298	0.57318	0.742995	-0.5252	0.903545	0.341838	0.1376	0.0607189	0.401849	-0.200622	0	0	0.0961813	-0.27567	-0.698132	0.117472	-0.192441	0	0	0.0714715	0.191668	-0.165942	-0.0196461	-0.534806	0.737064	0.853508	0.111928	0	0	0.201434	-0.125898	0.608825	0.29499	1.5708	0	0
185.08	-2.57076	1.29748	0.580538	0.742461	-0.523797	0.903457	0.340795	0.133353	0.0507977	0.404118	-0.201201	0	0	0.0978894	-0.272805	-0.698132	0.112795	-0.19312	0	0	0.0731716	0.190545	-0.172309	-0.0240379	-0.535619	0.736504	0.844388	0.157653	0	0	0.204105	-0.125359	0.612215	0.2898	1.5708	0	0
185.09	-2.65047	1.31214	0.660225	0.744667	-0.523307	0.903629	0.354042	0.0946244	0.0188824	0.429026	-0.192583	0	0	0.0627314	-0.209927	-0.504888	0	-0.233396	0	0	0.0811802	0.166221	-0.191116	-0.018732	-0.533973	0.751682	0.829555	0.146816	0	0	0.205663	-0.123718	0.610165	0.279247	1.5708	0	0
185.1	-2.6437	1.31437	0.646716	0.74363	-0.522524	0.904098	0.343226	0.0921469	0.00942193	0.428672	-0.192438	0	0	0.0556517	-0.209301	-0.509064	0	-0.241306	0	0	0.0770732	0.166323	-0.196206	-0.0247868	-0.535141	0.748556	0.825059	0.144871	0	0	0.207813	-0.123395	0.611168	0.276492	1.5708	0	0
185.11	-2.64181	1.31711	0.637462	0.742807	-0.521746	0.90438	0.333855	0.0868451	-0.0069949	0.430197	-0.192657	0	0	0.0516276	-0.207967	-0.511688	0	-0.246997	0	0	0.0738173	0.165985	-0.202002	-0.0290978	-0.537506	0.747979	0.820843	0.14206	0	0	0.209459	-0.123011	0.61205	0.274209	1.5708	0	0
185.12	-2.34082	1.40317	0.317599	0.743994	-0.525286	0.915769	0.209141	0.0234286	-0.0552783	0.410728	-0.201675	0	0	-0.0610511	-0.147634	-0.504211	0	-0.259129	0	0	-0.0418712	0.121461	-0.188935	-0.0110449	-0.533104	0.756877	0.806631	0.131348	0	0	0.225921	-0.125613	0.608833	0.271381	1.5708	0	0
185.13	-2.28803	1.40611	0.254714	0.742815	-0.525053	0.916504	0.191198	0.0183315	-0.0757733	0.413555	-0.198755	0	0	-0.0744199	-0.147412	-0.520873	0	-0.262169	0	0	-0.051511	0.123167	-0.191314	-0.0160363	-0.538796	0.754609	0.810601	0.0714671	0	0	0.226584	-0.124191	0.604303	0.271465	1.5708	0	0
185.14	-2.31451	1.39834	0.263917	0.740779	-0.525285	0.915596	0.191015	0.0222805	-0.0848082	0.419686	-0.196473	0	0	-0.0742439	-0.154056	-0.537213	0	-0.259757	0	0	-0.0410389	0.133277	-0.187698	-0.0278824	-0.54739	0.749356	0.805716	0.120591	0	0	0.223506	-0.118744	0.605724	0.268273	1.5708	0	0
185.15	-2.24552	1.41668	0.195563	0.740076	-0.524298	0.917727	0.168146	-0.00102483	-0.114043	0.428096	-0.191221	0	0	-0.0908829	-0.137473	-0.535736	0	-0.267058	0	0	-0.0587572	0.115885	-0.198863	-0.0304249	-0.540326	0.743314	0.793908	0.11652	0	0	0.2276	-0.123668	0.605288	0.269557	1.5708	0	0
185.16	-2.21705	1.42288	0.161729	0.739073	-0.52388	0.918047	0.159489	-0.0148055	-0.144294	0.446435	-0.182979	0	0	-0.0980802	-0.131676	-0.538771	0	-0.272384	0	0	-0.0631629	0.111828	-0.205272	-0.0374214	-0.541824	0.735952	0.788562	0.112741	0	0	0.227677	-0.124276	0.603889	0.272103	1.5708	0	0
185.17	-2.37137	1.42995	0.310952	0.73819	-0.523204	0.915339	0.210372	-0.0503919	-0.203795	0.546895	-0.147075	0	0	-0.072398	-0.119732	-0.524035	0	-0.263732	0	0	-0.0363836	0.100488	-0.215133	-0.0490013	-0.544565	0.729261	0.788111	0.0562537	0	0	0.221811	-0.124223	0.598701	0.274487	1.5708	0	0
185.18	-2.65113	1.43352	0.594927	0.738872	-0.522693	0.911553	0.272439	-0.100601	-0.262022	0.642956	-0.123365	0	0	-0.0477884	-0.0940543	-0.489214	0	-0.259889	0	0	0.00597679	0.08093	-0.235017	-0.0628499	-0.545057	0.719511	0.7802	0.0497488	0	0	0.215099	-0.123459	0.596345	0.273996	1.5708	0	0
185.19	-2.69636	1.43017	0.63341	0.73736	-0.523413	0.908865	0.293885	-0.128032	-0.319459	0.715463	-0.117559	0	0	-0.0275401	-0.0984189	-0.478447	0	-0.218155	0	0	0.0212989	0.0843918	-0.238261	-0.0831473	-0.557491	0.703363	0.787324	0.0485076	0	0	0.209892	-0.12016	0.5971	0.279072	1.5708	0	0
